<svg width="28" height="36" viewBox="0 0 28 36" fill="none" xmlns="http://www.w3.org/2000/svg">
<path d="M23.6808 18.8514L19.461 20.2416L17.8708 13.903L17.8601 13.8604L17.8422 13.8204L13.9007 5.01681C13.5065 3.98017 14.0236 2.81803 15.059 2.4181L15.059 2.41811L15.0606 2.41745C16.097 2.01284 17.2676 2.5313 17.6705 3.57217L17.6705 3.57217L17.6715 3.57472L23.6808 18.8514Z" fill="#EF9645" stroke="black"/>
<path d="M19.2385 1.61805L19.2343 1.60973C18.7329 0.614834 17.5178 0.215203 16.5228 0.716175L19.2385 1.61805ZM19.2385 1.61805L19.243 1.62622M19.2385 1.61805L19.243 1.62622M19.243 1.62622L25.0127 12.0839M19.243 1.62622L25.0127 12.0839M18.1508 22.3157C18.5209 21.9795 18.5209 21.9795 18.5208 21.9794L18.5206 21.9792L18.5198 21.9783L18.5168 21.975L18.505 21.962L18.4593 21.912C18.4194 21.8682 18.3608 21.8041 18.2859 21.7226C18.1362 21.5597 17.9215 21.3271 17.6612 21.0479C17.1407 20.4899 16.4366 19.7447 15.7035 18.9978C14.9719 18.2524 14.2053 17.499 13.5615 16.9277C13.2406 16.643 12.9409 16.3951 12.686 16.2148C12.5589 16.1249 12.4331 16.0447 12.3144 15.9845C12.2085 15.9307 12.0546 15.8644 11.886 15.8589L11.8858 15.8589C11.5957 15.8496 11.2568 15.9193 10.9275 16.0135C10.5885 16.1104 10.2179 16.2459 9.8501 16.3956C9.11396 16.6951 8.35818 17.0642 7.83323 17.334M18.1508 22.3157L7.83323 17.334M18.1508 22.3157L18.5209 21.9795M18.1508 22.3157L18.5209 21.9795M7.83323 17.334C7.83336 17.3339 7.8335 17.3338 7.83364 17.3338L8.06169 17.7785L7.83323 17.334ZM21.9258 18.6907L22.4102 18.5666L22.4101 18.5664L22.4099 18.5657L22.4092 18.5627L22.4062 18.551L22.3944 18.5052L22.35 18.3316L22.1912 17.7117C22.0597 17.1986 21.8843 16.5142 21.7085 15.8291C21.5326 15.1441 21.3564 14.4582 21.2232 13.942C21.1566 13.684 21.1008 13.4681 21.0611 13.3158C21.0413 13.2398 21.0253 13.179 21.014 13.1365L21 13.0845L20.9942 13.0638C20.9932 13.0607 20.9914 13.0544 20.989 13.047C20.9879 13.0437 20.9854 13.0362 20.982 13.0269C20.9802 13.0221 20.9757 13.0108 20.9729 13.004C20.9691 12.9953 20.9586 12.9738 20.9491 12.9561L20.9494 12.9559L15.6247 3.41854C15.1292 2.42511 15.5302 1.21659 16.5227 0.716247L21.9258 18.6907ZM21.9258 18.6907L22.4102 18.5667M21.9258 18.6907L22.4102 18.5667M22.8297 20.2054L21.5867 19.0581C20.6033 18.1505 19.2422 16.9337 17.9377 15.7675C17.8171 15.6596 17.6969 15.5521 17.5775 15.4454L17.5774 15.4453C16.0419 14.0714 14.822 13.13 13.99 12.5342C13.5739 12.2363 13.2548 12.0249 13.0416 11.8889C12.935 11.821 12.8549 11.7719 12.8024 11.7404C12.7761 11.7246 12.7567 11.7132 12.7444 11.706L12.7313 11.6984L12.7287 11.697L12.7287 11.6969L22.8297 20.2054ZM22.8297 20.2054L22.4102 18.5667M22.8297 20.2054L22.4102 18.5667M18.5319 21.9916L18.5421 22.0044C18.8759 22.424 18.9165 23.0053 18.6442 23.4671L15.7325 28.6892L15.7284 28.6966L15.724 28.7039C15.5986 28.9118 15.4178 29.0808 15.1996 29.1908L12.5364 30.6848L12.5238 30.6919L12.5107 30.6982C12.2614 30.8197 11.9779 30.8594 11.7022 30.8069L11.6483 30.7966L11.5978 30.7748L6.32785 28.5028L6.32778 28.5028C5.95783 28.3432 5.64016 28.0473 5.47377 27.6566L5.4737 27.6564C4.65395 25.7294 4.5378 23.8942 4.53542 23.8467L4.53534 23.845C4.48325 22.7311 3.53849 21.871 2.42415 21.9231L2.42097 21.9233C1.315 21.9679 0.4504 22.9164 0.502218 24.0326C0.514222 24.2728 0.846728 29.4568 5.05016 32.9648M18.5319 21.9916L5.05016 32.9648M18.5319 21.9916L18.5209 21.9795M18.5319 21.9916L18.5209 21.9795M5.05016 32.9648C5.05011 32.9648 5.05006 32.9647 5.05001 32.9647L4.7298 33.3487L5.05016 32.9648ZM25.0127 12.0839L25.0168 12.0947C25.0277 12.1237 25.0438 12.1666 25.0646 12.2224C25.1061 12.334 25.166 12.4966 25.2396 12.7C25.3868 13.1069 25.5881 13.6762 25.8045 14.3254C26.2393 15.6301 26.7271 17.2341 26.9645 18.4895L25.0127 12.0839ZM2.70476 21.4276C3.0639 21.6319 3.45344 21.7553 3.84879 21.8002C3.51121 21.59 3.12111 21.4579 2.70476 21.4276ZM2.86376 20.9403C3.21722 21.1608 3.61029 21.2839 4.0074 21.3129C3.66185 21.1167 3.27459 20.987 2.86376 20.9403ZM4.97682 14.3983C5.03188 14.3244 5.10019 14.2665 5.18388 14.2232L5.73797 20.103C5.01852 20.9516 3.75023 21.0626 2.89888 20.3494L2.89849 20.3491C2.04361 19.6344 1.93038 18.3619 2.64623 17.5066L2.65484 17.4963L2.66289 17.4856L4.97589 14.3996L4.97682 14.3983ZM25.4348 25.9596L25.8848 26.1777L25.4349 25.9595L25.4348 25.9596Z" fill="#FFDC5D" stroke="black"/>
</svg>
