<svg width="26" height="33" viewBox="0 0 26 33" fill="none" xmlns="http://www.w3.org/2000/svg">
<path d="M3.5 10C3.5 4.75314 7.75314 0.5 13 0.5C18.2469 0.5 22.5 4.75314 22.5 10V19.5H19.5V10C19.5 6.41091 16.5902 3.5 13 3.5C9.4098 3.5 6.5 6.41091 6.5 10V19.5H3.5V10Z" fill="#AAB8C2" stroke="black"/>
<path d="M25.5 29C25.5 30.9329 23.9329 32.5 22 32.5H4C2.06714 32.5 0.5 30.9329 0.5 29V17C0.5 15.0671 2.06714 13.5 4 13.5H22C23.9329 13.5 25.5 15.0671 25.5 17V29Z" fill="#FFAC33" stroke="black"/>
</svg>
