<svg width="36" height="36" viewBox="0 0 36 36" fill="none" xmlns="http://www.w3.org/2000/svg">
<path d="M22.352 20.2301L26.5949 24.473L24.474 26.5939L20.2311 22.351L22.352 20.2301Z" fill="#9AAAB4" stroke="black"/>
<path d="M29.2947 34.2436L29.2946 34.2435L23.4156 28.3645C22.8298 27.7787 22.8298 26.8293 23.4156 26.2436L26.2436 23.4156C26.8293 22.8298 27.7787 22.8298 28.3645 23.4156L34.2433 29.2944C34.2434 29.2945 34.2434 29.2945 34.2435 29.2946C35.6095 30.6616 35.6099 32.8781 34.2453 34.2436C32.8786 35.6112 30.6614 35.6112 29.2947 34.2436Z" fill="#66757F" stroke="black"/>
<path d="M26.5 13.5C26.5 20.6797 20.6797 26.5 13.5 26.5C6.3203 26.5 0.5 20.6797 0.5 13.5C0.5 6.3203 6.3203 0.5 13.5 0.5C20.6797 0.5 26.5 6.3203 26.5 13.5Z" fill="#8899A6" stroke="black"/>
<path d="M22.5 13.5C22.5 18.4706 18.4706 22.5 13.5 22.5C8.52944 22.5 4.5 18.4706 4.5 13.5C4.5 8.52944 8.52944 4.5 13.5 4.5C18.4706 4.5 22.5 8.52944 22.5 13.5Z" fill="#BBDDF5" stroke="black"/>
</svg>
