<svg width="36" height="36" viewBox="0 0 36 36" fill="none" xmlns="http://www.w3.org/2000/svg">
<path d="M15.4686 21.4919C15.4603 21.5034 15.4188 21.554 15.3307 21.5822L15.2139 20.6073C9.14218 20.1741 5.40103 19.1562 3.19326 18.2625C2.73328 18.0763 2.33993 17.8956 2.00595 17.7267C2.54607 17.7798 3.18167 17.8379 3.90067 17.8959C6.37391 18.0955 9.83594 18.295 13.7931 18.295C14.1625 18.295 14.4603 18.291 14.6893 18.2879C14.7413 18.2872 14.7897 18.2865 14.8347 18.286L15.2625 18.2807L15.3235 17.8572C15.3357 17.7723 15.3502 17.6501 15.3661 17.5165C15.3683 17.4979 15.3706 17.479 15.3729 17.46C15.3919 17.3005 15.4135 17.1219 15.438 16.9456C15.4626 16.7684 15.4892 16.5999 15.5174 16.4603C15.5316 16.3905 15.5452 16.3324 15.558 16.2867C15.5643 16.264 15.5699 16.2463 15.5745 16.2332C15.5788 16.2209 15.5814 16.2153 15.5816 16.2147C15.5816 16.2146 15.5816 16.2146 15.5816 16.2146L15.9158 15.5116L15.1375 15.5001C10.0067 15.424 6.28355 14.4401 3.85355 13.4844C3.23044 13.2394 2.69199 12.9961 2.23632 12.7701C5.70442 13.0617 9.34065 12.9657 11.9705 12.8152L13.0667 12.7524L12.2996 11.9667C11.9614 11.6203 11.7135 11.064 11.5536 10.4088C11.3962 9.7637 11.3374 9.07815 11.3374 8.531C11.3374 3.8639 15.0544 0.5 19.7044 0.5C23.6926 0.5 27.0315 3.33911 27.8653 7.14695L27.943 7.50208L28.3048 7.53761C32.0377 7.90415 34.968 11.099 34.968 15C34.968 17.9385 33.3002 20.474 30.88 21.7032L30.3902 21.952L30.6838 22.4163C31.522 23.7415 32.0123 25.3104 32.0123 27C32.0123 31.7019 28.2597 35.5 23.6453 35.5C20.6817 35.5 18.0804 33.9303 16.593 31.5602L16.4009 31.2542L16.0501 31.3405C15.6371 31.442 15.2133 31.5 14.7783 31.5C13.2251 31.5 11.8655 31.098 10.9061 30.3484C9.96164 29.6104 9.36699 28.5077 9.36699 27C9.36699 26.9217 9.37308 26.8572 9.38112 26.7721C9.38543 26.7265 9.3903 26.6749 9.3951 26.612L9.42758 26.1865L9.01237 26.0876C7.12304 25.6377 4.48707 24.696 1.73954 22.7237C2.44989 22.8057 3.34639 22.9018 4.38756 22.9979C7.1069 23.2488 10.8176 23.5 14.7783 23.5H15.2783V23.0001V23.0001V23.0001V23L15.2783 22.9996L15.2783 22.9968L15.2784 22.9839L15.279 22.9319C15.2798 22.8864 15.2813 22.8205 15.2842 22.7407C15.2902 22.5802 15.3021 22.3682 15.3254 22.1553C15.3492 21.9373 15.3826 21.7411 15.4251 21.6024C15.4462 21.5336 15.4631 21.5008 15.4686 21.4919ZM15.4686 21.4919C15.4697 21.4903 15.4702 21.4895 15.4701 21.4895C15.4701 21.4896 15.4697 21.4901 15.4689 21.4914L15.4686 21.4919Z" fill="#BDDDF4" stroke="black"/>
</svg>
