<svg width="28" height="28" viewBox="0 0 28 28" fill="none" xmlns="http://www.w3.org/2000/svg">
<g clip-path="url(#clip0_0_207)">
<path d="M0.0875076 6.22125C0.263939 5.44818 0.697654 4.75792 1.31762 4.26354C1.93759 3.76916 2.70706 3.49995 3.50001 3.5H24.5C25.293 3.49995 26.0624 3.76916 26.6824 4.26354C27.3024 4.75792 27.7361 5.44818 27.9125 6.22125L14 14.7245L0.0875076 6.22125ZM7.62939e-06 8.21975V20.6517L10.1553 14.4253L7.62939e-06 8.21975ZM11.8318 15.4525L0.334258 22.4998C0.618329 23.0987 1.06668 23.6047 1.62713 23.9589C2.18757 24.313 2.83706 24.5006 3.50001 24.5H24.5C25.1628 24.5001 25.8121 24.3121 26.3722 23.9577C26.9323 23.6032 27.3803 23.0971 27.664 22.498L16.1665 15.4508L14 16.7755L11.8318 15.4508V15.4525ZM17.8448 14.427L28 20.6517V8.21975L17.8448 14.4253V14.427Z" fill="#1A73E8"/>
</g>
<defs>
<clipPath id="clip0_0_207">
<rect width="28" height="28" fill="white"/>
</clipPath>
</defs>
</svg>
